<svg xmlns="http://www.w3.org/2000/svg" viewBox="0 0 1422 800"><g fill="hsl(164, 37%, 76%)" stroke-linejoin="round" shape-rendering="crispEdges"><path d="M1422 200h-355.5L1422 0zM1066.5 200 711 0h355.5zM1066.5 300V200L888.75 300zM888.75 300V200H711zM711 300v100h177.75zM1066.5 300v100H888.75zM1066.5 400V200H1422zM355.5 0v200L711 0zM0 200 355.5 0H0zM355.5 400V200H0zM711 200 355.5 400V200zM533.25 500 711 400H533.25zM355.5 400l177.75 100H355.5zM533.25 500v100L355.5 500zM533.25 600 711 500H533.25zM355.5 400v200L0 400zM0 800h355.5V600zM711 800V600L355.5 800zM1422 600h-355.5V400zM711 600h355.5V400zM711 800h355.5L711 600zM1422 800V600l-355.5 200z"/></g></svg>